<svg xmlns="http://www.w3.org/2000/svg" width="680" height="180" viewBox="0 0 680 180" role="img" aria-label="Top tools by stars">
<style>
text{font-family:system-ui,-apple-system,'Segoe UI',sans-serif}
.srf{fill:#fcfcfb;stroke:#e4e4e0}.ttl{fill:#0b0b0b;font-size:13.5px;font-weight:600}
.lbl{fill:#52514e;font-size:11.5px}.val{fill:#0b0b0b;font-size:11.5px;font-weight:600}
.bar{fill:#2a78d6}
@media(prefers-color-scheme:dark){
.srf{fill:#1a1a19;stroke:#33332f}.ttl{fill:#ffffff}
.lbl{fill:#c3c2b7}.val{fill:#ffffff}.bar{fill:#3987e5}
}
</style>
<rect x="0.5" y="0.5" width="679" height="179" rx="8" class="srf"/>
<text x="14" y="25" class="ttl">Top tools by stars</text>
<text x="236" y="49.0" class="lbl" text-anchor="end" dominant-baseline="central">obra/superpowers</text>
<path d="M244,40 h340.0 q4,0 4,4 v10 q0,4 -4,4 h-340.0 z" class="bar"/>
<text x="594.0" y="49.0" class="val" dominant-baseline="central">257,811</text>
<text x="236" y="76.0" class="lbl" text-anchor="end" dominant-baseline="central">ollama/ollama</text>
<path d="M244,67 h231.5 q4,0 4,4 v10 q0,4 -4,4 h-231.5 z" class="bar"/>
<text x="485.5" y="76.0" class="val" dominant-baseline="central">176,491</text>
<text x="236" y="103.0" class="lbl" text-anchor="end" dominant-baseline="central">anthropics/skills</text>
<path d="M244,94 h213.2 q4,0 4,4 v10 q0,4 -4,4 h-213.2 z" class="bar"/>
<text x="467.2" y="103.0" class="val" dominant-baseline="central">162,818</text>
<text x="236" y="130.0" class="lbl" text-anchor="end" dominant-baseline="central">huggingface/transformers</text>
<path d="M244,121 h213.2 q4,0 4,4 v10 q0,4 -4,4 h-213.2 z" class="bar"/>
<text x="467.2" y="130.0" class="val" dominant-baseline="central">162,754</text>
<text x="236" y="157.0" class="lbl" text-anchor="end" dominant-baseline="central">firecrawl/firecrawl</text>
<path d="M244,148 h200.5 q4,0 4,4 v10 q0,4 -4,4 h-200.5 z" class="bar"/>
<text x="454.5" y="157.0" class="val" dominant-baseline="central">153,281</text>
</svg>