<svg xmlns="http://www.w3.org/2000/svg" width="680" height="261" viewBox="0 0 680 261" role="img" aria-label="Biggest star gains (20d)">
<style>
text{font-family:system-ui,-apple-system,'Segoe UI',sans-serif}
.srf{fill:#fcfcfb;stroke:#e4e4e0}.ttl{fill:#0b0b0b;font-size:13.5px;font-weight:600}
.lbl{fill:#52514e;font-size:11.5px}.val{fill:#0b0b0b;font-size:11.5px;font-weight:600}
.bar{fill:#2a78d6}
@media(prefers-color-scheme:dark){
.srf{fill:#1a1a19;stroke:#33332f}.ttl{fill:#ffffff}
.lbl{fill:#c3c2b7}.val{fill:#ffffff}.bar{fill:#3987e5}
}
</style>
<rect x="0.5" y="0.5" width="679" height="260" rx="8" class="srf"/>
<text x="14" y="25" class="ttl">Biggest star gains (20d)</text>
<text x="236" y="49.0" class="lbl" text-anchor="end" dominant-baseline="central">DietrichGebert/ponytail</text>
<path d="M244,40 h340.0 q4,0 4,4 v10 q0,4 -4,4 h-340.0 z" class="bar"/>
<text x="594.0" y="49.0" class="val" dominant-baseline="central">19,647</text>
<text x="236" y="76.0" class="lbl" text-anchor="end" dominant-baseline="central">public-apis/public-apis</text>
<path d="M244,67 h321.4 q4,0 4,4 v10 q0,4 -4,4 h-321.4 z" class="bar"/>
<text x="575.4" y="76.0" class="val" dominant-baseline="central">18,586</text>
<text x="236" y="103.0" class="lbl" text-anchor="end" dominant-baseline="central">harry0703/MoneyPrinterTurbo</text>
<path d="M244,94 h291.6 q4,0 4,4 v10 q0,4 -4,4 h-291.6 z" class="bar"/>
<text x="545.6" y="103.0" class="val" dominant-baseline="central">16,885</text>
<text x="236" y="130.0" class="lbl" text-anchor="end" dominant-baseline="central">diegosouzapw/OmniRoute</text>
<path d="M244,121 h285.3 q4,0 4,4 v10 q0,4 -4,4 h-285.3 z" class="bar"/>
<text x="539.3" y="130.0" class="val" dominant-baseline="central">16,522</text>
<text x="236" y="157.0" class="lbl" text-anchor="end" dominant-baseline="central">openai/codex</text>
<path d="M244,148 h271.0 q4,0 4,4 v10 q0,4 -4,4 h-271.0 z" class="bar"/>
<text x="525.0" y="157.0" class="val" dominant-baseline="central">15,704</text>
<text x="236" y="184.0" class="lbl" text-anchor="end" dominant-baseline="central">earendil-works/pi</text>
<path d="M244,175 h250.6 q4,0 4,4 v10 q0,4 -4,4 h-250.6 z" class="bar"/>
<text x="504.6" y="184.0" class="val" dominant-baseline="central">14,543</text>
<text x="236" y="211.0" class="lbl" text-anchor="end" dominant-baseline="central">PrimeIntellect-ai/prime-agent</text>
<path d="M244,202 h226.1 q4,0 4,4 v10 q0,4 -4,4 h-226.1 z" class="bar"/>
<text x="480.1" y="211.0" class="val" dominant-baseline="central">13,141</text>
<text x="236" y="238.0" class="lbl" text-anchor="end" dominant-baseline="central">firecrawl/firecrawl</text>
<path d="M244,229 h202.4 q4,0 4,4 v10 q0,4 -4,4 h-202.4 z" class="bar"/>
<text x="456.4" y="238.0" class="val" dominant-baseline="central">11,786</text>
</svg>