<svg xmlns="http://www.w3.org/2000/svg" width="680" height="180" viewBox="0 0 680 180" role="img" aria-label="Top tools by stars">
<style>
text{font-family:system-ui,-apple-system,'Segoe UI',sans-serif}
.srf{fill:#fcfcfb;stroke:#e4e4e0}.ttl{fill:#0b0b0b;font-size:13.5px;font-weight:600}
.lbl{fill:#52514e;font-size:11.5px}.val{fill:#0b0b0b;font-size:11.5px;font-weight:600}
.bar{fill:#2a78d6}
@media(prefers-color-scheme:dark){
.srf{fill:#1a1a19;stroke:#33332f}.ttl{fill:#ffffff}
.lbl{fill:#c3c2b7}.val{fill:#ffffff}.bar{fill:#3987e5}
}
</style>
<rect x="0.5" y="0.5" width="679" height="179" rx="8" class="srf"/>
<text x="14" y="25" class="ttl">Top tools by stars</text>
<text x="236" y="49.0" class="lbl" text-anchor="end" dominant-baseline="central">obra/superpowers</text>
<path d="M244,40 h340.0 q4,0 4,4 v10 q0,4 -4,4 h-340.0 z" class="bar"/>
<text x="594.0" y="49.0" class="val" dominant-baseline="central">253,346</text>
<text x="236" y="76.0" class="lbl" text-anchor="end" dominant-baseline="central">affaan-m/ECC</text>
<path d="M244,67 h307.0 q4,0 4,4 v10 q0,4 -4,4 h-307.0 z" class="bar"/>
<text x="561.0" y="76.0" class="val" dominant-baseline="central">229,056</text>
<text x="236" y="103.0" class="lbl" text-anchor="end" dominant-baseline="central">github/spec-kit</text>
<path d="M244,94 h159.1 q4,0 4,4 v10 q0,4 -4,4 h-159.1 z" class="bar"/>
<text x="413.1" y="103.0" class="val" dominant-baseline="central">120,147</text>
<text x="236" y="130.0" class="lbl" text-anchor="end" dominant-baseline="central">bytedance/deer-flow</text>
<path d="M244,121 h100.4 q4,0 4,4 v10 q0,4 -4,4 h-100.4 z" class="bar"/>
<text x="354.4" y="130.0" class="val" dominant-baseline="central">76,889</text>
<text x="236" y="157.0" class="lbl" text-anchor="end" dominant-baseline="central">daytonaio/daytona</text>
<path d="M244,148 h94.0 q4,0 4,4 v10 q0,4 -4,4 h-94.0 z" class="bar"/>
<text x="348.0" y="157.0" class="val" dominant-baseline="central">72,197</text>
</svg>