<svg xmlns="http://www.w3.org/2000/svg" width="680" height="180" viewBox="0 0 680 180" role="img" aria-label="Tools per category">
<style>
text{font-family:system-ui,-apple-system,'Segoe UI',sans-serif}
.srf{fill:#fcfcfb;stroke:#e4e4e0}.ttl{fill:#0b0b0b;font-size:13.5px;font-weight:600}
.lbl{fill:#52514e;font-size:11.5px}.val{fill:#0b0b0b;font-size:11.5px;font-weight:600}
.bar{fill:#2a78d6}
@media(prefers-color-scheme:dark){
.srf{fill:#1a1a19;stroke:#33332f}.ttl{fill:#ffffff}
.lbl{fill:#c3c2b7}.val{fill:#ffffff}.bar{fill:#3987e5}
}
</style>
<rect x="0.5" y="0.5" width="679" height="179" rx="8" class="srf"/>
<text x="14" y="25" class="ttl">Tools per category</text>
<text x="236" y="49.0" class="lbl" text-anchor="end" dominant-baseline="central">Terminal coding agent</text>
<path d="M244,40 h340.0 q4,0 4,4 v10 q0,4 -4,4 h-340.0 z" class="bar"/>
<text x="594.0" y="49.0" class="val" dominant-baseline="central">13</text>
<text x="236" y="76.0" class="lbl" text-anchor="end" dominant-baseline="central">Session / token ops</text>
<path d="M244,67 h181.2 q4,0 4,4 v10 q0,4 -4,4 h-181.2 z" class="bar"/>
<text x="435.2" y="76.0" class="val" dominant-baseline="central">7</text>
<text x="236" y="103.0" class="lbl" text-anchor="end" dominant-baseline="central">Multi-CLI glue</text>
<path d="M244,94 h128.3 q4,0 4,4 v10 q0,4 -4,4 h-128.3 z" class="bar"/>
<text x="382.3" y="103.0" class="val" dominant-baseline="central">5</text>
<text x="236" y="130.0" class="lbl" text-anchor="end" dominant-baseline="central">Safety / isolation</text>
<path d="M244,121 h101.8 q4,0 4,4 v10 q0,4 -4,4 h-101.8 z" class="bar"/>
<text x="355.8" y="130.0" class="val" dominant-baseline="central">4</text>
<text x="236" y="157.0" class="lbl" text-anchor="end" dominant-baseline="central">TUI building blocks</text>
<path d="M244,148 h48.9 q4,0 4,4 v10 q0,4 -4,4 h-48.9 z" class="bar"/>
<text x="302.9" y="157.0" class="val" dominant-baseline="central">2</text>
</svg>