<svg xmlns="http://www.w3.org/2000/svg" width="680" height="396" viewBox="0 0 680 396" role="img" aria-label="Tools per category">
<style>
text{font-family:system-ui,-apple-system,'Segoe UI',sans-serif}
.srf{fill:#fcfcfb;stroke:#e4e4e0}.ttl{fill:#0b0b0b;font-size:13.5px;font-weight:600}
.lbl{fill:#52514e;font-size:11.5px}.val{fill:#0b0b0b;font-size:11.5px;font-weight:600}
.bar{fill:#2a78d6}
@media(prefers-color-scheme:dark){
.srf{fill:#1a1a19;stroke:#33332f}.ttl{fill:#ffffff}
.lbl{fill:#c3c2b7}.val{fill:#ffffff}.bar{fill:#3987e5}
}
</style>
<rect x="0.5" y="0.5" width="679" height="395" rx="8" class="srf"/>
<text x="14" y="25" class="ttl">Tools per category</text>
<text x="236" y="49.0" class="lbl" text-anchor="end" dominant-baseline="central">Client libraries (TS/JS)</text>
<path d="M244,40 h340.0 q4,0 4,4 v10 q0,4 -4,4 h-340.0 z" class="bar"/>
<text x="594.0" y="49.0" class="val" dominant-baseline="central">4</text>
<text x="236" y="76.0" class="lbl" text-anchor="end" dominant-baseline="central">🔥 AI × finance / trading</text>
<path d="M244,67 h340.0 q4,0 4,4 v10 q0,4 -4,4 h-340.0 z" class="bar"/>
<text x="594.0" y="76.0" class="val" dominant-baseline="central">4</text>
<text x="236" y="103.0" class="lbl" text-anchor="end" dominant-baseline="central">Contract libraries &amp; standards</text>
<path d="M244,94 h254.0 q4,0 4,4 v10 q0,4 -4,4 h-254.0 z" class="bar"/>
<text x="508.0" y="103.0" class="val" dominant-baseline="central">3</text>
<text x="236" y="130.0" class="lbl" text-anchor="end" dominant-baseline="central">Execution clients (nodes)</text>
<path d="M244,121 h254.0 q4,0 4,4 v10 q0,4 -4,4 h-254.0 z" class="bar"/>
<text x="508.0" y="130.0" class="val" dominant-baseline="central">3</text>
<text x="236" y="157.0" class="lbl" text-anchor="end" dominant-baseline="central">Oracles, AA &amp; wallets</text>
<path d="M244,148 h254.0 q4,0 4,4 v10 q0,4 -4,4 h-254.0 z" class="bar"/>
<text x="508.0" y="157.0" class="val" dominant-baseline="central">3</text>
<text x="236" y="184.0" class="lbl" text-anchor="end" dominant-baseline="central">DeFi protocol references</text>
<path d="M244,175 h254.0 q4,0 4,4 v10 q0,4 -4,4 h-254.0 z" class="bar"/>
<text x="508.0" y="184.0" class="val" dominant-baseline="central">3</text>
<text x="236" y="211.0" class="lbl" text-anchor="end" dominant-baseline="central">Solana</text>
<path d="M244,202 h254.0 q4,0 4,4 v10 q0,4 -4,4 h-254.0 z" class="bar"/>
<text x="508.0" y="211.0" class="val" dominant-baseline="central">3</text>
<text x="236" y="238.0" class="lbl" text-anchor="end" dominant-baseline="central">Zero-knowledge</text>
<path d="M244,229 h254.0 q4,0 4,4 v10 q0,4 -4,4 h-254.0 z" class="bar"/>
<text x="508.0" y="238.0" class="val" dominant-baseline="central">3</text>
<text x="236" y="265.0" class="lbl" text-anchor="end" dominant-baseline="central">🔥 Agentic payments (x402)</text>
<path d="M244,256 h254.0 q4,0 4,4 v10 q0,4 -4,4 h-254.0 z" class="bar"/>
<text x="508.0" y="265.0" class="val" dominant-baseline="central">3</text>
<text x="236" y="292.0" class="lbl" text-anchor="end" dominant-baseline="central">Languages &amp; compilers</text>
<path d="M244,283 h168.0 q4,0 4,4 v10 q0,4 -4,4 h-168.0 z" class="bar"/>
<text x="422.0" y="292.0" class="val" dominant-baseline="central">2</text>
<text x="236" y="319.0" class="lbl" text-anchor="end" dominant-baseline="central">Dev toolkits</text>
<path d="M244,310 h168.0 q4,0 4,4 v10 q0,4 -4,4 h-168.0 z" class="bar"/>
<text x="422.0" y="319.0" class="val" dominant-baseline="central">2</text>
<text x="236" y="346.0" class="lbl" text-anchor="end" dominant-baseline="central">Security &amp; analysis</text>
<path d="M244,337 h168.0 q4,0 4,4 v10 q0,4 -4,4 h-168.0 z" class="bar"/>
<text x="422.0" y="346.0" class="val" dominant-baseline="central">2</text>
<text x="236" y="373.0" class="lbl" text-anchor="end" dominant-baseline="central">Indexing &amp; on-chain data</text>
<path d="M244,364 h168.0 q4,0 4,4 v10 q0,4 -4,4 h-168.0 z" class="bar"/>
<text x="422.0" y="373.0" class="val" dominant-baseline="central">2</text>
</svg>