<svg xmlns="http://www.w3.org/2000/svg" width="680" height="180" viewBox="0 0 680 180" role="img" aria-label="Top tools by stars">
<style>
text{font-family:system-ui,-apple-system,'Segoe UI',sans-serif}
.srf{fill:#fcfcfb;stroke:#e4e4e0}.ttl{fill:#0b0b0b;font-size:13.5px;font-weight:600}
.lbl{fill:#52514e;font-size:11.5px}.val{fill:#0b0b0b;font-size:11.5px;font-weight:600}
.bar{fill:#2a78d6}
@media(prefers-color-scheme:dark){
.srf{fill:#1a1a19;stroke:#33332f}.ttl{fill:#ffffff}
.lbl{fill:#c3c2b7}.val{fill:#ffffff}.bar{fill:#3987e5}
}
</style>
<rect x="0.5" y="0.5" width="679" height="179" rx="8" class="srf"/>
<text x="14" y="25" class="ttl">Top tools by stars</text>
<text x="236" y="49.0" class="lbl" text-anchor="end" dominant-baseline="central">punkpeye/awesome-mcp-servers</text>
<path d="M244,40 h340.0 q4,0 4,4 v10 q0,4 -4,4 h-340.0 z" class="bar"/>
<text x="594.0" y="49.0" class="val" dominant-baseline="central">90,979</text>
<text x="236" y="76.0" class="lbl" text-anchor="end" dominant-baseline="central">modelcontextprotocol/servers</text>
<path d="M244,67 h331.2 q4,0 4,4 v10 q0,4 -4,4 h-331.2 z" class="bar"/>
<text x="585.2" y="76.0" class="val" dominant-baseline="central">88,650</text>
<text x="236" y="103.0" class="lbl" text-anchor="end" dominant-baseline="central">upstash/context7</text>
<path d="M244,94 h220.8 q4,0 4,4 v10 q0,4 -4,4 h-220.8 z" class="bar"/>
<text x="474.8" y="103.0" class="val" dominant-baseline="central">59,460</text>
<text x="236" y="130.0" class="lbl" text-anchor="end" dominant-baseline="central">microsoft/playwright-mcp</text>
<path d="M244,121 h129.4 q4,0 4,4 v10 q0,4 -4,4 h-129.4 z" class="bar"/>
<text x="383.4" y="130.0" class="val" dominant-baseline="central">35,277</text>
<text x="236" y="157.0" class="lbl" text-anchor="end" dominant-baseline="central">github/github-mcp-server</text>
<path d="M244,148 h115.4 q4,0 4,4 v10 q0,4 -4,4 h-115.4 z" class="bar"/>
<text x="369.4" y="157.0" class="val" dominant-baseline="central">31,573</text>
</svg>