<svg xmlns="http://www.w3.org/2000/svg" width="680" height="180" viewBox="0 0 680 180" role="img" aria-label="Top tools by stars">
<style>
text{font-family:system-ui,-apple-system,'Segoe UI',sans-serif}
.srf{fill:#fcfcfb;stroke:#e4e4e0}.ttl{fill:#0b0b0b;font-size:13.5px;font-weight:600}
.lbl{fill:#52514e;font-size:11.5px}.val{fill:#0b0b0b;font-size:11.5px;font-weight:600}
.bar{fill:#2a78d6}
@media(prefers-color-scheme:dark){
.srf{fill:#1a1a19;stroke:#33332f}.ttl{fill:#ffffff}
.lbl{fill:#c3c2b7}.val{fill:#ffffff}.bar{fill:#3987e5}
}
</style>
<rect x="0.5" y="0.5" width="679" height="179" rx="8" class="srf"/>
<text x="14" y="25" class="ttl">Top tools by stars</text>
<text x="236" y="49.0" class="lbl" text-anchor="end" dominant-baseline="central">openclaw/openclaw</text>
<path d="M244,40 h340.0 q4,0 4,4 v10 q0,4 -4,4 h-340.0 z" class="bar"/>
<text x="594.0" y="49.0" class="val" dominant-baseline="central">382,751</text>
<text x="236" y="76.0" class="lbl" text-anchor="end" dominant-baseline="central">NousResearch/hermes-agent</text>
<path d="M244,67 h188.3 q4,0 4,4 v10 q0,4 -4,4 h-188.3 z" class="bar"/>
<text x="442.3" y="76.0" class="val" dominant-baseline="central">213,952</text>
<text x="236" y="103.0" class="lbl" text-anchor="end" dominant-baseline="central">farion1231/cc-switch</text>
<path d="M244,94 h100.7 q4,0 4,4 v10 q0,4 -4,4 h-100.7 z" class="bar"/>
<text x="354.7" y="103.0" class="val" dominant-baseline="central">116,545</text>
<text x="236" y="130.0" class="lbl" text-anchor="end" dominant-baseline="central">CherryHQ/cherry-studio</text>
<path d="M244,121 h39.6 q4,0 4,4 v10 q0,4 -4,4 h-39.6 z" class="bar"/>
<text x="293.6" y="130.0" class="val" dominant-baseline="central">48,494</text>
<text x="236" y="157.0" class="lbl" text-anchor="end" dominant-baseline="central">HKUDS/nanobot</text>
<path d="M244,148 h36.7 q4,0 4,4 v10 q0,4 -4,4 h-36.7 z" class="bar"/>
<text x="290.7" y="157.0" class="val" dominant-baseline="central">45,327</text>
</svg>