<svg xmlns="http://www.w3.org/2000/svg" width="680" height="261" viewBox="0 0 680 261" role="img" aria-label="Biggest star gains (18d)">
<style>
text{font-family:system-ui,-apple-system,'Segoe UI',sans-serif}
.srf{fill:#fcfcfb;stroke:#e4e4e0}.ttl{fill:#0b0b0b;font-size:13.5px;font-weight:600}
.lbl{fill:#52514e;font-size:11.5px}.val{fill:#0b0b0b;font-size:11.5px;font-weight:600}
.bar{fill:#2a78d6}
@media(prefers-color-scheme:dark){
.srf{fill:#1a1a19;stroke:#33332f}.ttl{fill:#ffffff}
.lbl{fill:#c3c2b7}.val{fill:#ffffff}.bar{fill:#3987e5}
}
</style>
<rect x="0.5" y="0.5" width="679" height="260" rx="8" class="srf"/>
<text x="14" y="25" class="ttl">Biggest star gains (18d)</text>
<text x="236" y="49.0" class="lbl" text-anchor="end" dominant-baseline="central">earendil-works/pi</text>
<path d="M244,40 h340.0 q4,0 4,4 v10 q0,4 -4,4 h-340.0 z" class="bar"/>
<text x="594.0" y="49.0" class="val" dominant-baseline="central">12,268</text>
<text x="236" y="76.0" class="lbl" text-anchor="end" dominant-baseline="central">Graphify-Labs/graphify</text>
<path d="M244,67 h337.2 q4,0 4,4 v10 q0,4 -4,4 h-337.2 z" class="bar"/>
<text x="591.2" y="76.0" class="val" dominant-baseline="central">12,167</text>
<text x="236" y="103.0" class="lbl" text-anchor="end" dominant-baseline="central">DietrichGebert/ponytail</text>
<path d="M244,94 h330.0 q4,0 4,4 v10 q0,4 -4,4 h-330.0 z" class="bar"/>
<text x="584.0" y="103.0" class="val" dominant-baseline="central">11,912</text>
<text x="236" y="130.0" class="lbl" text-anchor="end" dominant-baseline="central">obra/superpowers</text>
<path d="M244,121 h300.9 q4,0 4,4 v10 q0,4 -4,4 h-300.9 z" class="bar"/>
<text x="554.9" y="130.0" class="val" dominant-baseline="central">10,872</text>
<text x="236" y="157.0" class="lbl" text-anchor="end" dominant-baseline="central">microsoft/AI-For-Beginners</text>
<path d="M244,148 h295.2 q4,0 4,4 v10 q0,4 -4,4 h-295.2 z" class="bar"/>
<text x="549.2" y="157.0" class="val" dominant-baseline="central">10,672</text>
<text x="236" y="184.0" class="lbl" text-anchor="end" dominant-baseline="central">NousResearch/hermes-agent</text>
<path d="M244,175 h265.1 q4,0 4,4 v10 q0,4 -4,4 h-265.1 z" class="bar"/>
<text x="519.1" y="184.0" class="val" dominant-baseline="central">9,598</text>
<text x="236" y="211.0" class="lbl" text-anchor="end" dominant-baseline="central">firecrawl/firecrawl</text>
<path d="M244,202 h264.4 q4,0 4,4 v10 q0,4 -4,4 h-264.4 z" class="bar"/>
<text x="518.4" y="211.0" class="val" dominant-baseline="central">9,571</text>
<text x="236" y="238.0" class="lbl" text-anchor="end" dominant-baseline="central">codecrafters-io/build-your-own-x</text>
<path d="M244,229 h229.4 q4,0 4,4 v10 q0,4 -4,4 h-229.4 z" class="bar"/>
<text x="483.4" y="238.0" class="val" dominant-baseline="central">8,324</text>
</svg>